# xmcd CD database file
#
# Track frame offsets:
#	150
#	17480
#	34722
#	52052
#
# Disc length: 920 seconds
#
# Revision: 0
# Processed by: cddbd v1.5.1PL0 Copyright (c) Steve Scherf et al.
# Submitted via: CDex 1.51
#
DISCID=29039604
DTITLE=奥村　愛子 - 恋したいハート (Single)
DYEAR=2005
DGENRE=Pop
TTITLE0=恋したいハート
TTITLE1=14番目の月
TTITLE2=恋したいハート (Instrumental)
TTITLE3=14番目の月 (Instrumental)
EXTD=YEAR: 2005
EXTT0=
EXTT1=
EXTT2=
EXTT3=
PLAYORDER=
